<?xml version="1.0" ?><svg clip-rule="evenodd" fill-rule="evenodd" image-rendering="optimizeQuality" shape-rendering="geometricPrecision" text-rendering="geometricPrecision" viewBox="0 0 500 500" xmlns="http://www.w3.org/2000/svg"><g><polygon fill="#008BFF" points="50,20 80,420 250,480 420,420 450,20"/><polygon fill="#279DFF" points="250,60 410,60 390,390 250,440"/><polygon fill="#FEFEFF" points="250,340 250,395 355,360 365,210 250,210 250,260 310,260 305,325"/><polygon fill="#E5E5E6" points="250,110 126,110 137,260 250,260 250,210 185,210 180,160 250,160"/><polygon fill="#FEFEFF" points="250,160 250,110 370,110 365,160"/><polygon fill="#E5E5E6" points="250,340 250,395 145,360 140,280 190,280 195,325"/></g></svg>